<?xml version="1.0" encoding="UTF-8" standalone="no"?>
<svg
   xmlns:dc="http://purl.org/dc/elements/1.1/"
   xmlns:cc="http://creativecommons.org/ns#"
   xmlns:rdf="http://www.w3.org/1999/02/22-rdf-syntax-ns#"
   xmlns:svg="http://www.w3.org/2000/svg"
   xmlns="http://www.w3.org/2000/svg"
   viewBox="0 0 583.35602 349.172"
   height="200.172"
   width="300.35602"
   xml:space="preserve"
   id="svg2"
   version="1.1"><metadata
     id="metadata8"><rdf:RDF><cc:Work
         rdf:about=""><dc:format>image/svg+xml</dc:format><dc:type
           rdf:resource="http://purl.org/dc/dcmitype/StillImage" /></cc:Work></rdf:RDF></metadata><defs
     id="defs6"><clipPath
       id="clipPath20"
       clipPathUnits="userSpaceOnUse"><path
         id="path18"
         d="M 0,0 H 595.2756 V 841.8898 H 0 Z" /></clipPath></defs><g
     transform="matrix(1.3333333,0,0,-1.3333333,0,349.172)"
     id="g10"><g
       transform="translate(-83.086,-289.735)"
       id="g12"><g
         id="g14"><g
           clip-path="url(#clipPath20)"
           id="g16"><g
             id="g22"><g
               id="g24"><g
                 id="g26"><path
                   id="path28"
                   style="fill:#c40a8d;fill-opacity:1;fill-rule:evenodd;stroke:none"
                   d="m 396.4385,364.2094 -0.3844,1.1158 c -1.6679,4.8415 -4.6204,8.7823 -8.7066,11.8536 -4.6026,3.4591 -10.1557,4.7086 -15.8318,4.7086 -5.0544,0 -9.8418,-1.1888 -14.2069,-3.7644 -4.2525,-2.5095 -7.6031,-5.9499 -10.0185,-10.2554 -2.4931,-4.4442 -3.638,-9.2914 -3.638,-14.3742 0,-5.0035 1.0525,-9.8266 3.4396,-14.2441 2.2989,-4.2546 5.5579,-7.6303 9.7251,-10.0832 4.428,-2.6061 9.3631,-3.6878 14.4711,-3.6878 4.392,0 8.7092,0.8042 12.6567,2.7776 3.6303,1.8153 6.658,4.3796 8.9388,7.746 2.2739,3.3571 3.6181,7.109 4.1349,11.1234 0.2157,1.6744 0.237,3.3925 0.237,5.0789 v 3.2161 h -23.7992 v -1.1687 c 0,-1.7331 0.6347,-3.242 1.859,-4.4665 1.2243,-1.2243 2.7337,-1.859 4.4666,-1.859 h 9.2361 l -0.1817,-1.381 c -0.3257,-2.4767 -1.1852,-4.7568 -2.7043,-6.7533 -1.6786,-2.2062 -3.8117,-3.8531 -6.3365,-4.9881 -2.6487,-1.1908 -5.455,-1.7552 -8.3557,-1.7552 -3.7029,0 -7.2525,0.8067 -10.4156,2.7802 -2.9818,1.8609 -5.2662,4.367 -6.8568,7.5005 -1.6735,3.2969 -2.414,6.8575 -2.414,10.5434 0,3.5961 0.8198,7.0053 2.5164,10.1801 1.6667,3.1192 3.9974,5.6358 6.9874,7.5254 3.0574,1.9324 6.4255,2.8151 10.0309,2.8151 3.2069,0 6.469,-0.5533 9.2688,-2.1912 2.3785,-1.3912 4.4475,-3.1858 5.9904,-5.4825 0.7061,-1.0511 1.6206,-1.8935 2.749,-2.4732 1.1027,-0.5664 2.2902,-0.8495 3.5295,-0.8495 0.8484,0 1.6905,0.1717 2.4933,0.4393 z m 19.1342,12.0351 c 0,1.1869 -0.3892,2.2626 -1.1254,3.191 -0.7268,0.9164 -1.6676,1.5454 -2.8097,1.8144 l -0.002,9e-4 -0.0391,0.008 c -0.4096,0.0831 -0.8694,0.1738 -1.2881,0.1738 -1.4105,0 -2.6217,-0.5576 -3.583,-1.5826 -0.9623,-1.0264 -1.4536,-2.2745 -1.4536,-3.6814 0,-1.3351 0.5001,-2.501 1.4423,-3.4429 0.9074,-0.9071 2.0171,-1.448 3.3049,-1.516 l 0.0422,-0.003 c 1.4281,-0.1253 2.7514,0.3308 3.8265,1.2792 1.1177,0.9862 1.6847,2.27 1.6847,3.7585 z m -1.3652,-11.7235 h -7.6462 v -38.5118 h 1.1687 c 1.7904,0 3.341,0.6653 4.5902,1.9448 1.2427,1.2728 1.8873,2.8279 1.8873,4.6083 z m 19.3788,0 h -7.5702 v -38.5118 h 1.1687 c 1.7753,0 3.325,0.6415 4.5802,1.8969 1.2555,1.2552 1.8972,2.8052 1.8972,4.5805 v 12.3614 c 0,3.1728 0.6801,6.2472 2.4886,8.8962 1.7872,2.6178 4.6094,3.4339 7.6425,3.4339 0.6412,0 1.2818,-0.0737 1.9184,-0.1443 l 1.2977,-0.1445 v 7.9083 l -0.9768,0.1625 c -0.6397,0.1065 -1.3634,0.0915 -2.012,0.0915 -2.5713,0 -4.968,-0.741 -7.1632,-2.0633 -0.4492,-0.2707 -0.881,-0.5698 -1.2925,-0.8946 l -1.9786,-1.5614 z m 19.923,19.0349 v -57.5467 h 7.7218 v 57.5467 z" /><g
                   id="g30"><path
                     id="path32"
                     style="fill:#2e9a7c;fill-opacity:1;fill-rule:evenodd;stroke:none"
                     d="m 269.051,326.8123 v 6.7096 l -1.3901,-0.2608 c -0.9919,-0.1857 -2.0376,-0.2075 -3.0447,-0.2075 -2.7386,0 -4.7413,0.7801 -4.7413,3.9073 v 20.819 h 3.3004 c 1.6104,0 3.0263,0.5681 4.1669,1.7087 1.1211,1.1208 1.7088,2.5033 1.7088,4.091 v 1.1738 h -9.1761 v 4.0589 c 0,1.7572 -0.6157,3.301 -1.8606,4.5463 -1.245,1.2452 -2.789,1.8603 -4.546,1.8603 h -1.1738 v -10.4655 h -6.6739 v -6.9735 h 6.6739 v -20.9707 c 0,-7.3684 4.2565,-10.8051 11.4117,-10.8051 0.758,0 1.5174,0.0666 2.2692,0.1607 0.7421,0.0927 1.4884,0.2146 2.2107,0.4116 z" /><path
                     id="path34"
                     style="fill:#2e9a7c;fill-opacity:1;fill-rule:evenodd;stroke:none"
                     d="m 217.9001,349.8894 v -1.5826 l 0.002,-0.0295 c 0.0666,-1.2305 0.4955,-2.3607 1.1897,-3.3726 0.9774,-1.4253 2.6671,-1.8372 4.3049,-1.8372 h 18.082 l 0.1437,1.008 c 0.0887,0.6228 0.0873,1.2816 0.0873,1.91 0,3.4719 -0.6131,6.8885 -2.0809,10.0497 -1.3836,2.98 -3.4518,5.3952 -6.245,7.1373 -2.9886,1.8644 -6.4216,2.5668 -9.9111,2.5668 -3.4515,0 -6.6727,-0.8974 -9.5825,-2.7643 -2.8701,-1.8411 -5.1131,-4.2954 -6.7317,-7.2936 -1.6421,-3.0416 -2.454,-6.317 -2.454,-9.7719 0,-3.5416 0.8093,-6.9134 2.5376,-10.0133 1.6889,-3.0291 4.0416,-5.4519 7.0228,-7.2247 3.0589,-1.8184 6.416,-2.6674 9.9661,-2.6674 3.3483,0 6.5313,0.7744 9.4513,2.4273 2.8907,1.6364 5.0791,3.9699 6.5423,6.9506 l 0.5241,1.0678 -6.5984,3.1314 -0.5091,-1.0443 c -0.8374,-1.7189 -2.0509,-3.0846 -3.7072,-4.0507 -1.7683,-1.0315 -3.7477,-1.4326 -5.779,-1.4326 -2.0548,0 -3.9988,0.4637 -5.792,1.4782 -1.7442,0.9868 -3.1493,2.3327 -4.2072,4.0346 -1.0865,1.7478 -1.6163,3.67 -1.7201,5.7175 l -0.001,0.0306 c -0.0584,0.9349 -0.0734,1.872 -0.0734,2.8086 v 0.0759 c 0,0.2948 -0.004,0.5885 0.0249,0.8824 l 0.0219,0.2229 0.0643,0.1286 0.0278,0.1849 c 0.2769,1.8425 0.936,3.5464 1.9749,5.0933 1.0287,1.5318 2.3394,2.7703 3.9367,3.696 1.5653,0.9074 3.2522,1.3587 5.0613,1.3587 2.7689,0 5.3252,-0.7305 7.3225,-2.7278 1.2886,-1.2886 2.1645,-2.8411 2.6963,-4.5754 l 0.4827,-1.5732 h -16.0738 z" /><path
                     id="path36"
                     style="fill:#2e9a7c;fill-opacity:1;fill-rule:evenodd;stroke:none"
                     d="m 187.7491,364.5261 h -7.5804 v -38.522 h 1.1738 c 1.7765,0 3.3276,0.642 4.5839,1.8984 1.2563,1.2563 1.8986,2.8074 1.8986,4.5841 v 12.3614 c 0,3.1717 0.6798,6.2453 2.4877,8.8934 1.7864,2.6164 4.6069,3.4316 7.6383,3.4316 0.6412,0 1.2815,-0.0737 1.9179,-0.1443 l 1.3034,-0.1451 v 7.9183 l -0.9814,0.1633 c -0.6398,0.1065 -1.3638,0.0915 -2.0126,0.0915 -2.5722,0 -4.9697,-0.741 -7.1657,-2.0639 -0.4496,-0.271 -0.8813,-0.5703 -1.2932,-0.8952 l -1.9703,-1.5548 z" /><path
                     id="path38"
                     style="fill:#2e9a7c;fill-opacity:1;fill-rule:evenodd;stroke:none"
                     d="m 145.3192,354.2122 v -1.4014 c 0,-1.4015 0.5633,-2.7046 1.3414,-3.8461 1.1849,-1.7382 3.3568,-2.2175 5.3368,-2.2569 l 0.003,-6e-4 0.0431,6e-4 c 3.7491,0.0493 7.541,0.6894 10.908,2.4023 2.8857,1.4684 5.3252,3.5249 6.997,6.3213 1.6183,2.7065 2.3656,5.6857 2.3656,8.8308 0,3.0061 -0.6914,5.8668 -2.1586,8.4971 -1.5483,2.7748 -3.9045,4.809 -6.7,6.2697 -3.3384,1.7444 -7.1631,2.3329 -10.8952,2.3329 h -18.9199 v -55.3578 h 7.884 v 47.7774 h 10.5809 c 3.1297,0 7.0957,-0.4629 9.4028,-2.7987 1.8876,-1.9105 2.7706,-4.1964 2.7706,-6.8723 0,-1.7144 -0.4289,-3.3131 -1.2841,-4.7985 -0.9346,-1.6237 -2.3924,-2.787 -4.0357,-3.6391 -2.1688,-1.1248 -4.7404,-1.4607 -7.1572,-1.4607 h -6.4823 z" /><path
                     id="path40"
                     style="fill:#2e9a7c;fill-opacity:1;fill-rule:evenodd;stroke:none"
                     d="m 298.9925,364.4501 17.0365,-34.9356 -9.8623,-21.4078 h 1.8331 c 1.9508,0 3.7653,0.5386 5.4088,1.5871 1.6464,1.0505 2.8812,2.4798 3.6961,4.2531 l 23.2129,50.5032 h -8.2783 l -11.8564,-26.356 -9.5244,20.1374 c -0.9094,1.8756 -2.2434,3.3845 -3.9941,4.5144 -1.7572,1.1336 -3.7026,1.7042 -5.7934,1.7042 z" /><path
                     id="path42"
                     style="fill:#2e9a7c;fill-opacity:1;fill-rule:evenodd;stroke:none"
                     d="m 295.4375,326.8123 v 6.7096 l -1.3901,-0.2608 c -0.9918,-0.1857 -2.0375,-0.2075 -3.0447,-0.2075 -2.7385,0 -4.7412,0.7801 -4.7412,3.9073 v 20.819 h 3.3004 c 1.6104,0 3.0263,0.5681 4.1669,1.7087 1.1211,1.1208 1.7087,2.5033 1.7087,4.091 v 1.1738 h -9.176 v 4.0589 c 0,1.7572 -0.6157,3.301 -1.8606,4.5463 -1.245,1.2452 -2.7891,1.8603 -4.546,1.8603 h -1.1738 v -10.4655 h -6.6739 v -6.9735 h 6.6739 v -20.9707 c 0,-7.3684 4.2565,-10.8051 11.4117,-10.8051 0.758,0 1.5174,0.0666 2.2692,0.1607 0.7421,0.0927 1.4884,0.2146 2.2107,0.4116 z" /></g></g><g
                 id="g44"><path
                   id="path46"
                   style="fill:#c40a8d;fill-opacity:1;fill-rule:nonzero;stroke:none"
                   d="m 370.5934,446.3138 c 1.8311,10.349 1.2682,21.0595 -1.9903,31.3087 4.0559,-29.2972 -11.6019,-59.9482 -40.9053,-74.8894 -31.8575,-16.2433 -69.2813,-8.5402 -89.9221,16.5714 17.8728,-31.375 59.0463,-42.6685 93.5142,-25.094 21.5793,11.0029 35.5297,30.7817 39.3035,52.1033" /><path
                   id="path48"
                   style="fill:#2e9a7c;fill-opacity:1;fill-rule:nonzero;stroke:none"
                   d="m 311.2279,400.038 c 9.8314,3.05 19.0432,8.346 26.7917,15.7807 -24.2107,-16.6759 -57.3412,-16.8021 -81.9856,1.9967 -26.7925,20.4373 -34.6788,56.4648 -20.6555,85.6968 -20.624,-29.6334 -14.4301,-70.5351 14.5582,-92.6473 18.1482,-13.8436 41.0351,-17.1099 61.2912,-10.8269" /><path
                   id="path50"
                   style="fill:#c40a8d;fill-opacity:1;fill-rule:evenodd;stroke:none"
                   d="m 300.6235,437.5502 c 4.8938,23.2042 -0.153,24.0415 6.0599,37.2992 -1.9097,-7.0419 -1.7898,-10.6226 -1.7898,-10.6226 6.4452,-9.4893 11.6371,2.0288 18.2611,-1.3133 0,0 3.4866,7.1615 -3.316,14.3827 0,0 3.2179,-1.9513 5.853,-7.3494 -1.4457,6.8471 -4.934,10.3403 -8.1521,12.1213 -7.06,3.9092 -17.2406,-0.7404 -9.7816,17.0107 2.9146,6.9361 3.5519,12.0795 3.0793,15.9432 -1.0032,8.2029 -7.1813,8.9795 -6.3031,18.731 -2.3785,-6.2989 2.8114,-12.928 3.5484,-19.0704 0.4408,-3.6739 -0.6789,-7.6745 -2.2042,-9.9776 -1.7456,-2.6368 -3.3783,-3.3786 -3.4991,-0.1956 -0.0916,2.4205 1.3723,2.6957 1.3193,5.8796 -0.0601,3.5807 -3.0751,3.4611 -3.0751,3.4611 0,0 -3.016,0.1196 -3.075,-3.4611 -0.0533,-3.1839 1.4097,-3.4591 1.3192,-5.8796 -0.1216,-3.183 -1.7535,-2.4412 -3.5002,0.1956 -1.5253,2.3031 -2.6441,6.3037 -2.2042,9.9776 0.7379,6.1424 5.9281,12.7715 3.5484,19.0704 0.8782,-9.7515 -5.2999,-10.5281 -6.302,-18.731 -0.4725,-3.8637 0.1644,-9.0071 3.079,-15.9432 7.4583,-17.7511 -2.7215,-13.1015 -9.7823,-17.0107 -3.2171,-1.781 -6.7062,-5.2742 -8.1511,-12.1213 2.6343,5.3981 5.8522,7.3494 5.8522,7.3494 -6.8029,-7.2212 -3.3163,-14.3827 -3.3163,-14.3827 6.6249,3.3421 11.8168,-8.176 18.2619,1.3133 0,0 0.1199,3.5807 -1.7906,10.6226 6.213,-13.2577 1.1667,-14.095 6.061,-37.2992" /><path
                   id="path52"
                   style="fill:#2e9a7c;fill-opacity:1;fill-rule:evenodd;stroke:none"
                   d="m 318.8625,484.4574 c 1.8207,-1.008 3.3633,-2.2751 4.6545,-3.7398 4.6825,0.2007 9.4045,0.5259 12.4517,0.6781 8.5629,0.4274 15.3749,-0.3994 16.8032,8.134 1.3981,8.35 -1.0196,14.5035 2.5926,22.9391 2.8069,6.5557 11.2306,11.8086 7.0957,15.2767 -4.2622,3.5754 -15.3499,-3.4721 -18.216,-5.3452 l -10.9157,-8.1797 c -5.6545,-4.7585 -19.0145,-17.6641 -22.1201,-27.3818 0.2772,-0.0624 0.5281,-0.1143 0.7282,-0.1574 2.4267,-0.521 4.7234,-1.0045 6.9259,-2.224" /><path
                   id="path54"
                   style="fill:#2e9a7c;fill-opacity:1;fill-rule:evenodd;stroke:none"
                   d="m 325.1058,478.6313 c 1.5795,-2.4037 2.6371,-5.1766 3.2584,-8.1201 l 0.4989,-2.3627 -2.0738,-0.7126 c 0,-0.0122 0,-0.0241 0,-0.0363 -0.0119,-1.7747 -0.3875,-4.0663 -1.1821,-5.6877 l -1.2157,-2.482 -2.4676,1.245 c -0.572,0.2885 -1.1185,0.3849 -1.7541,0.314 -1.0434,-0.1162 -2.196,-0.6584 -3.1379,-1.1038 -0.2639,-0.1247 -0.5267,-0.2505 -0.7895,-0.3747 0.5562,-5.7634 2.0398,-11.0605 8.9708,-12.2341 6.967,-1.18 14.1823,5.5868 16.6278,-2.7949 0.9964,-3.4143 0.8212,-5.8555 3.0053,-8.1519 2.3162,-2.4358 6.77,-1.9329 5.5763,2.3854 -1.4497,5.2458 -8.0745,6.0667 -8.9946,13.8047 -0.5046,4.2426 3.3959,4.8555 4.1111,7.2329 0.9447,3.141 -2.7514,4.3285 -0.9097,8.7341 0.7056,1.6866 1.5466,2.734 0.4315,4.6499 -2.0648,3.5465 -7.9861,4.3813 -11.7278,4.9011 -2.6717,0.3714 -5.4369,0.6404 -8.2273,0.7937" /><path
                   id="path56"
                   style="fill:#2e9a7c;fill-opacity:1;fill-rule:evenodd;stroke:none"
                   d="m 275.6384,461.7119 c -0.7946,1.6214 -1.1701,3.9132 -1.1818,5.6877 -3e-4,0.0122 -3e-4,0.0244 -3e-4,0.0366 l -2.0721,0.7121 0.4986,2.3626 c 0.6118,2.8993 1.6472,5.6336 3.1876,8.0124 -4.0039,-0.2698 -7.9013,-0.8365 -11.3777,-1.8955 -2.5407,-0.7741 -5.6472,-2.6291 -6.0673,-5.0363 -0.4748,-2.7201 2.8211,-3.4478 0.7143,-8.337 -3.5325,-8.1978 7.3429,-3.9574 2.0285,-15.1438 -1.9071,-4.0147 -9.9502,-7.4988 -7.1535,-13.0328 8.0836,-2.0617 6.8607,8.3381 9.2486,11.7345 3.202,4.555 10.8207,-1.8056 17.5119,0.7793 4.3132,1.6656 6.2016,5.3631 6.8513,10.5491 -1.2382,0.3946 -2.4137,0.978 -3.6127,1.5449 -1.4896,0.7044 -3.2667,1.6092 -4.8924,0.7892 l -2.4672,-1.245 z" /><path
                   id="path58"
                   style="fill:#2e9a7c;fill-opacity:1;fill-rule:evenodd;stroke:none"
                   d="m 268.3188,481.3903 c 3.2003,-0.1735 6.4187,-0.3095 9.6429,-0.4147 1.2427,1.3558 2.7093,2.5336 4.422,3.4818 2.2028,1.2195 4.4994,1.7033 6.9265,2.2243 0.7509,0.1613 2.2155,0.4502 3.1065,0.917 -3.4583,10.1977 -14.1642,19.4845 -18.4788,24.0313 -1.0307,1.0857 -2.0636,1.6084 -3.255,2.7199 l -10.9177,8.1765 c -2.9194,1.7963 -14.0167,8.7667 -18.2398,5.1111 -3.8976,-3.3726 4.8827,-8.9886 7.4021,-15.5454 3.4027,-8.8572 1.0225,-14.167 2.4591,-22.6389 1.4544,-8.5706 8.7228,-7.6184 16.9322,-8.0629" /></g></g></g></g></g></g></g></svg>