<?xml version="1.0" encoding="utf-8"?><svg version="1.1" id="Layer_1" xmlns="http://www.w3.org/2000/svg" xmlns:xlink="http://www.w3.org/1999/xlink" x="0px" y="0px" viewBox="0 0 121.84 122.88" style="enable-background:new 0 0 121.84 122.88" xml:space="preserve"><g><path d="M51.91,48.76h18.32c0.68,0,1.32,0.14,1.92,0.38c0.61,0.25,1.17,0.63,1.63,1.09l0,0c0.46,0.46,0.84,1.02,1.09,1.63 c0.25,0.59,0.38,1.24,0.38,1.92V59h5.32c0.47,0,0.9,0.15,1.26,0.4c0.36,0.26,0.64,0.63,0.79,1.05l9.7,23.3 c0.96-1.32,1.84-2.69,2.63-4.12c0.89-1.61,1.67-3.29,2.32-5.03c0.81-2.15,1.44-4.4,1.86-6.72c0.41-2.26,0.62-4.59,0.62-6.99 c0-4.29-0.69-8.42-1.97-12.28c-1.33-4-3.29-7.7-5.76-11c-2.25-3-4.93-5.67-7.94-7.91c-2.87-2.13-6.04-3.88-9.43-5.16 c-0.09,0.31-0.22,0.61-0.38,0.89c-0.23,0.42-0.53,0.82-0.88,1.16c-0.4,0.4-0.87,0.73-1.38,1c-0.49,0.26-1.03,0.44-1.58,0.55 c-0.02,0.01-0.04,0.01-0.06,0.01l-0.01,0c-0.16,0.03-0.32,0.05-0.48,0.07l-0.01,0c-0.17,0.02-0.33,0.02-0.47,0.02H53.99 c-0.11,0-0.23,0-0.35-0.01c-0.11-0.01-0.24-0.02-0.38-0.04c-0.6-0.08-1.18-0.26-1.72-0.53c-0.55-0.27-1.04-0.62-1.46-1.03 c-0.42-0.42-0.78-0.9-1.03-1.43c-0.18-0.37-0.31-0.77-0.38-1.18c-3.57,1.19-6.91,2.88-9.93,4.99c-3.19,2.23-6.03,4.92-8.43,7.98 c-2.62,3.35-4.7,7.14-6.11,11.25c-1.36,3.96-2.1,8.22-2.1,12.64c0,2.39,0.21,4.73,0.62,6.99c0.42,2.32,1.05,4.56,1.86,6.72 c0.68,1.81,1.49,3.55,2.43,5.22c0.84,1.49,1.77,2.93,2.79,4.3l10.13-23.8c0.17-0.4,0.45-0.73,0.79-0.96 c0.33-0.22,0.72-0.34,1.12-0.36C41.85,59,41.87,59,41.9,59h4.95v-5.18c0-0.68,0.14-1.34,0.39-1.93c0.26-0.62,0.63-1.18,1.1-1.64 c0.47-0.47,1.02-0.84,1.64-1.1C50.58,48.89,51.23,48.76,51.91,48.76L51.91,48.76z M72.8,63.33c-0.13,0.04-0.26,0.06-0.39,0.08 c-0.15,0.02-0.31,0.03-0.46,0.03H50.16c-0.15,0-0.31-0.01-0.46-0.03c-0.13-0.02-0.27-0.05-0.4-0.08h-5.97L28.1,99.11h65.93 l-4.16-9.99c-0.06-0.1-0.12-0.2-0.16-0.31c-0.05-0.11-0.08-0.22-0.11-0.33L79.13,63.33H72.8L72.8,63.33z M22.84,100.42l5.01-11.77 c-1.53-1.83-2.92-3.78-4.14-5.86c-1.25-2.11-2.32-4.34-3.19-6.67c-0.9-2.4-1.6-4.9-2.07-7.48c-0.46-2.52-0.7-5.11-0.7-7.75 c0-4.91,0.82-9.64,2.34-14.04c1.57-4.56,3.89-8.78,6.8-12.51c2.82-3.61,6.21-6.76,10.02-9.32c3.69-2.47,7.78-4.39,12.15-5.64 l1.94-14.21c-5.67,1-11.05,2.85-16,5.4c-5.22,2.7-9.98,6.18-14.1,10.31c-5.22,5.22-9.42,11.45-12.29,18.37 C5.86,45.93,4.33,53.24,4.33,60.9c0,4.36,0.49,8.6,1.42,12.67c0.96,4.19,2.38,8.21,4.21,11.98c1.61,3.33,3.55,6.48,5.76,9.41 c2.07,2.74,4.37,5.28,6.88,7.59l0.07-1.39c0.01-0.13,0.02-0.26,0.05-0.38C22.76,100.66,22.8,100.54,22.84,100.42L22.84,100.42z M51.18,59h19.74v-5.22c0-0.09-0.02-0.18-0.05-0.26c-0.04-0.08-0.09-0.16-0.15-0.22l0,0c-0.06-0.06-0.14-0.12-0.22-0.15 c-0.08-0.03-0.17-0.05-0.26-0.05H51.91c-0.1,0-0.19,0.02-0.28,0.06c-0.09,0.04-0.17,0.09-0.24,0.16c-0.07,0.07-0.12,0.15-0.16,0.24 c-0.04,0.08-0.05,0.18-0.05,0.28V59L51.18,59z M94.23,88.35l5.03,12.09c0.06,0.14,0.1,0.27,0.12,0.41 c0.03,0.14,0.04,0.28,0.04,0.42l0.05,1.05c2.54-2.37,4.86-4.96,6.93-7.76c2.21-2.99,4.14-6.2,5.74-9.59c1.74-3.7,3.09-7.62,4-11.71 c0.88-3.97,1.35-8.11,1.35-12.36c0-7.67-1.52-14.98-4.28-21.64c-2.87-6.92-7.07-13.15-12.29-18.37 c-4.03-4.03-8.67-7.46-13.75-10.13c-4.82-2.53-10.04-4.38-15.55-5.44l2.65,14.53c4.21,1.37,8.13,3.37,11.66,5.88 c3.64,2.59,6.86,5.73,9.53,9.31c2.75,3.67,4.93,7.79,6.41,12.24c1.43,4.29,2.2,8.87,2.2,13.63c0,2.64-0.24,5.23-0.7,7.75 c-0.47,2.58-1.17,5.08-2.07,7.48c-0.85,2.26-1.89,4.44-3.09,6.5C97.05,84.64,95.71,86.56,94.23,88.35L94.23,88.35z M99.76,107.84 l0.63,12.77c0.03,0.6-0.19,1.15-0.56,1.56s-0.9,0.68-1.5,0.7l-0.02,0c-0.02,0.01-0.05,0.01-0.08,0.01H23.88 c-0.6,0-1.14-0.24-1.53-0.63l-0.02-0.02c-0.38-0.39-0.61-0.92-0.61-1.51l0-0.14l0.01-0.11l0.61-12.43 c-3.39-2.78-6.48-5.92-9.2-9.35c-2.74-3.47-5.12-7.23-7.07-11.25c-1.97-4.07-3.51-8.39-4.54-12.9C0.53,70.15,0,65.59,0,60.9 c0-8.25,1.64-16.12,4.61-23.3c3.09-7.46,7.61-14.17,13.23-19.78c5.84-5.84,12.53-10.28,19.81-13.27C45.01,1.54,52.97,0,61.24,0 c8.04,0,15.86,1.59,23.09,4.61C91.59,7.64,98.27,12.1,104,17.83c5.61,5.61,10.14,12.32,13.23,19.78c2.97,7.18,4.61,15.05,4.61,23.3 c0,4.56-0.5,9-1.46,13.28c-0.98,4.4-2.44,8.63-4.32,12.62c-1.92,4.07-4.27,7.9-6.99,11.41C106.33,101.76,103.2,104.99,99.76,107.84 L99.76,107.84z M26.89,103.45l-0.74,15.1h69.8l-0.74-15.1H26.89L26.89,103.45z M67.12,4.65c-0.98-0.11-1.96-0.19-2.95-0.24 c-1.07-0.06-2.15-0.09-3.25-0.09c-0.98,0-1.95,0.02-2.89,0.07c-0.86,0.04-1.72,0.11-2.57,0.19l-2.27,16.59 c0,0.08-0.01,0.16-0.02,0.23c-0.01,0.08-0.03,0.16-0.05,0.24l-0.21,1.52l0,0.1c0.01,0.03,0.02,0.07,0.04,0.11 c0.04,0.07,0.09,0.14,0.16,0.21c0.09,0.09,0.21,0.17,0.33,0.23l0.02,0.01c0.12,0.05,0.24,0.09,0.37,0.11l0.05,0l15.52,0 c0.05,0,0.09,0,0.13,0l0.11-0.01c0.13-0.03,0.25-0.07,0.37-0.13c0.12-0.06,0.24-0.14,0.33-0.24c0.06-0.06,0.11-0.12,0.14-0.18 c0.02-0.04,0.03-0.07,0.03-0.1c0-0.03,0.01,0,0.01-0.02l-0.01-0.04L67.12,4.65L67.12,4.65z"/></g></svg>