<?xml version="1.0" encoding="utf-8"?><svg version="1.1" id="Layer_1" xmlns="http://www.w3.org/2000/svg" xmlns:xlink="http://www.w3.org/1999/xlink" x="0px" y="0px" viewBox="0 0 84.89 122.88" style="enable-background:new 0 0 84.89 122.88" xml:space="preserve"><g><path d="M42.45,0L42.45,0l0,0.02c23.11,0,42.42,19.23,42.42,42.42l0.02,0v0.01h-0.02c0,11.73-4.75,22.34-12.42,30.01 c-6.45,6.46-15,10.84-24.54,12.06v13.26h18.8c3.02,0,5.47,2.45,5.47,5.47c0,3.02-2.45,5.47-5.47,5.47h-18.8v9.71 c0,2.45-2.45,4.43-5.47,4.43s-5.47-1.98-5.47-4.43v-9.71h-18.8c-3.02,0-5.47-2.45-5.47-5.47c0-3.02,2.45-5.47,5.47-5.47h18.8V84.53 c-9.54-1.23-18.09-5.61-24.54-12.06C4.76,64.79,0.02,54.19,0.02,42.46l-0.02,0v-0.01l0.02,0c0-11.73,4.75-22.34,12.41-30.01 C20.1,4.77,30.71,0.02,42.44,0.02L42.45,0L42.45,0L42.45,0z M42.45,10.92v0.02h-0.01L42.45,10.92c-8.69,0-16.56,3.54-22.28,9.25 c-5.71,5.71-9.25,13.59-9.25,22.27h0.02v0.01h-0.02c0,8.68,3.54,16.55,9.25,22.27c5.71,5.71,13.59,9.25,22.27,9.25v-0.02h0.01v0.02 c8.68,0,16.56-3.54,22.27-9.25c5.71-5.71,9.25-13.59,9.25-22.27h-0.02v-0.01h0.02c0-8.68-3.54-16.55-9.25-22.27 C59.01,14.46,51.13,10.93,42.45,10.92L42.45,10.92z"/></g></svg>